<?xml version="1.0" encoding="utf-8"?>
<!-- Generator: Adobe Illustrator 21.0.0, SVG Export Plug-In . SVG Version: 6.00 Build 0)  -->
<svg version="1.1" id="레이어_1" xmlns="http://www.w3.org/2000/svg" xmlns:xlink="http://www.w3.org/1999/xlink" x="0px"
	 y="0px" viewBox="0 0 566.9 566.9" style="enable-background:new 0 0 566.9 566.9;" xml:space="preserve">
<style type="text/css">
	.st0{opacity:0.83;fill:#70489A;}
	.st1{opacity:0.83;fill:#4560AC;}
	.st2{fill:#FFFFFF;}
	.st3{opacity:0.83;fill:#8B3E7E;}
	.st4{opacity:0.81;fill:#7B91C9;}
	.st5{opacity:0.81;fill:#83AFDE;}
	.st6{opacity:0.83;fill:#435292;}
	.st7{fill:#8CB4E0;}
	.st8{opacity:0.83;fill:#6E4698;}
	.st9{fill:#CECEE7;}
	.st10{opacity:0.83;fill:#1B3793;}
	.st11{opacity:0.81;fill:#B6E0E9;}
	.st12{fill:#C0E3E5;}
	.st13{fill:#C6E7F3;}
	.st14{fill:#171C61;}
	.st15{fill:#FFF100;}
</style>
<rect x="272.7" y="431.4" class="st0" width="72" height="2.6"/>
<rect x="247" y="421.9" class="st0" width="75.1" height="5.4"/>
<rect x="240.1" y="417.2" class="st0" width="72" height="2.6"/>
<path class="st1" d="M278.6,388c-3.2-3.6-5.9-7.3-7.6-10.8h-90.1c-0.9,1.7-2.6,5.6-3.8,10.8H278.6z"/>
<path class="st1" d="M176.9,391.2c-0.3,1.3-0.5,2.6-0.6,4h107.1c-1.3-1.3-2.6-2.6-3.8-4H176.9z"/>
<path class="st1" d="M316.6,388h109.4c2.5-3.6,4.7-7,5.9-10.3H305.6C307.9,380.7,311.1,384.2,316.6,388z"/>
<path class="st1" d="M313.9,391.2c1.9,1.3,4.1,2.6,6.5,4h97.8c1-1.4,1.9-2.7,2.8-4H313.9z"/>
<path class="st2" d="M129.9,64h2.2c-1-3.9-1.3-7.2-0.7-9.6C131.3,54.4,130.1,57.6,129.9,64z"/>
<path class="st2" d="M130.2,72.3h4.7c-0.6-1.6-1.2-3.2-1.7-4.7h-3.3C129.9,69.1,130,70.6,130.2,72.3z"/>
<path class="st3" d="M317.6,462.9h-83.1c4.3,2.3,8.9,4.7,13.7,7h68.6C317.1,467.9,317.3,465.6,317.6,462.9z"/>
<path class="st2" d="M190.9,110c-0.4-2.4-0.8-4.9-1.2-7.5h-12.1c0,2.4,0,4.9,0.1,7.5H190.9z"/>
<path class="st2" d="M265.9,110h4c1.3-1.9,2.4-3.8,3.2-5.8C273.2,104.2,270.8,106.6,265.9,110z"/>
<path class="st2" d="M366.4,97.4h7.4c-0.2-2.1-0.5-4.1-0.9-6.1h-6.4C366.5,93.3,366.5,95.3,366.4,97.4z"/>
<path class="st2" d="M194,124.6c-0.7-2.9-1.6-6.7-2.4-11h-13.7c0.2,3.5,0.4,7.1,0.7,11H194z"/>
<path class="st2" d="M432.7,91.3h-13c-0.5,2.5-1.2,5-1.8,7.5H431C431.7,96.4,432.2,93.9,432.7,91.3z"/>
<path class="st2" d="M425.1,139.3c6.3-3.6,12.3-7.3,17.6-11h-38.1c-0.7,0.9-1.3,1.9-2.1,2.8c0,0-5.8,4.6-12.9,8.2H425.1z"/>
<path class="st2" d="M364.7,124.6h10.5c0-3.5-0.1-7.2-0.3-11h-9.3C365.4,117.3,365.1,121,364.7,124.6z"/>
<path class="st2" d="M266.9,113.6h-6.8c-6.2,3.6-14.6,7.6-25.6,11h19C258.7,121.3,263.3,117.6,266.9,113.6z"/>
<path class="st2" d="M462.9,87.7c-0.3-2.4-0.9-5-1.8-7.5c0,0,0.5,3-0.2,7.5H462.9z"/>
<path class="st2" d="M179.6,76c-0.6,3.5-1.1,7.4-1.5,11.7h10.2c-0.2-3.9-0.2-7.8,0-11.7H179.6z"/>
<path class="st2" d="M189.1,97.4c-0.2-2-0.4-4-0.6-6.1h-10.7c-0.1,2-0.2,4-0.2,6.1H189.1z"/>
<path class="st2" d="M420.4,87.7h12.8c0.4-3.8,0.6-7.8,0.6-11.7h-11.5C421.8,79.7,421.2,83.7,420.4,87.7z"/>
<path class="st2" d="M162.3,123.4c-1.7-2.8-3.7-6.1-5.9-9.8H143c1.7,3.5,3.6,7.2,5.8,11h14.3C162.8,124.2,162.6,123.8,162.3,123.4z"
	/>
<path class="st2" d="M429.3,103.5c0.1-0.3,0.3-0.7,0.4-1h-13c-0.8,2.5-1.6,5-2.6,7.5h12.8C427.5,108.1,428.3,106,429.3,103.5z"/>
<path class="st2" d="M366.2,102.5c-0.1,2.4-0.2,5-0.4,7.5h8.9c-0.1-2.5-0.3-5-0.5-7.5H366.2z"/>
<path class="st2" d="M457.1,98.8h5.9c0.2-2.3,0.4-4.8,0.2-7.5h-3.2C459.4,93.6,458.5,96.2,457.1,98.8z"/>
<path class="st2" d="M433.9,171h29.8C464,167.2,462.6,156.9,433.9,171z"/>
<path class="st2" d="M149.8,102.5H138c1,2.4,2,4.9,3.2,7.5h12.9C152.8,107.6,151.3,105.1,149.8,102.5z"/>
<path class="st2" d="M385.2,197.1h71.1c0.8-1.8,1.5-3.6,2.2-5.4h-63.3C391.8,193.6,388.5,195.4,385.2,197.1z"/>
<path class="st2" d="M213.7,244c-15.4-1.5-27.4-6.6-36.6-13.1h-32.2c3.7,5.1,8.3,10.1,13.8,14.5h202.1c-0.7-1.7-1.6-3.5-2.6-5.2
	c-6.6-11.6,2.3-2.6,7.1,5.2h54.2c4.6-4.1,9.6-9,14.5-14.5H211.6C215.4,238.9,213.7,244,213.7,244z"/>
<path class="st2" d="M209.6,227.2h227.6c2.4-2.9,4.8-6,7.1-9.2H202.1C205.4,221.3,207.9,224.4,209.6,227.2z"/>
<path class="st2" d="M186.9,364.8c-1.3,2.8-2.7,5.7-4.1,8.7h86.8c-0.4-1.3-0.6-2.5-0.6-3.7c0-2.2,0.1-3.9,0.3-5.1H186.9z"/>
<path class="st4" d="M198.1,363.9h219.4c-0.1-0.1-0.1-0.2-0.2-0.3c-2.2-2.6-5.8-6.9-9.9-12.4H204
	C202.2,355.2,200.2,359.5,198.1,363.9z"/>
<path class="st5" d="M298.1,375.6h129.6c0.4-2.6,0.1-5.2-1.3-7.9H291.6C293.9,370,296.3,373.2,298.1,375.6z"/>
<path class="st2" d="M247.4,128.3h-27.5c-7.2,1.5-15.3,2.6-24.1,3.1c0,0-0.3-1.1-0.9-3.1h-16c0.1,1.6,0.3,3.2,0.5,4.9
	c0,0-5.2,5.7-13.7-4.9h-14.8c2.1,3.5,4.4,7.2,6.8,11h65C230.8,136.3,239.5,132.6,247.4,128.3z"/>
<path class="st2" d="M323.4,167.3c0,0-3.5-6.6-10.8-3.1c0,0,0.5,2.7,1.1,6.8h10.1C323.6,169.9,323.5,168.7,323.4,167.3z"/>
<path class="st2" d="M352.1,179.9h-23.7c-0.4,0.2-0.9,0.2-1.3,0h-12.4c0.2,2.6,0.4,5.4,0.4,8.2h30.2
	C347.4,185.2,349.7,182.5,352.1,179.9z"/>
<path class="st2" d="M212.2,188.1h48.7c-3.8-2.9-8.7-5.3-14.9-6.4c-2.2-0.4-4.4-1-6.6-1.7h-39.2
	C203.9,182.6,207.9,185.3,212.2,188.1z"/>
<path class="st2" d="M448.4,110h12.2c0-0.2,0.1-0.4,0.1-0.5c0,0,1-2.7,1.8-7h-7.6C453.2,105,451.1,107.5,448.4,110z"/>
<path class="st2" d="M148.7,157.6h-9.1c-9.6,0.9-11.1,4.9-11.1,4.9s-0.6,4.2-0.6,10.8h49.6C168.6,164.9,160.9,158.5,148.7,157.6z"/>
<path class="st2" d="M416.8,179.9c-3.9,2.1-7.8,4.2-11.6,6.4h55.2c0.6-2.1,1.2-4.2,1.7-6.4H416.8z"/>
<path class="st2" d="M366.6,87.7h5.6c-1.1-5-2.5-9.2-4.4-11.7h-1.2C366.6,78,366.7,82.2,366.6,87.7z"/>
<path class="st2" d="M168.4,153.9h29.2c-3.8-3.2-6.1-5.4-6.1-5.4s8.7-1.9,20.4-5.6h-51.7c2.1,3.1,4.3,6.2,6.6,9.4
	C166.8,152.3,167.4,152.9,168.4,153.9z"/>
<path class="st2" d="M147,97.4c-1.1-2-2.2-4.1-3.3-6.1h-9.6c0.6,2,1.3,4,2,6.1H147z"/>
<path class="st6" d="M323.6,396.7c13.7,5,34.3,9.7,65.6,12.9c0,0,11.5-0.3,21.3-12c0.2-0.3,0.5-0.6,0.7-0.9H323.6z"/>
<path class="st7" d="M208.7,318.6c-1.1,2.6-2.4,5.4-4,8.4h181.6c-2.3-2.7-4.5-5.5-6.7-8.4H208.7z"/>
<path class="st8" d="M324.7,451.1h-83.1c4.3,2.3,8.9,4.7,13.7,7h68.6C324.2,456.1,324.5,453.8,324.7,451.1z"/>
<path class="st2" d="M375.3,128.3h-10.9c-0.5,3.9-1,7.6-1.7,11h12.5C375.2,136.5,375.3,132.7,375.3,128.3z"/>
<path class="st9" d="M204.9,296.5c-0.8,4.3-1.9,9.2-3.5,14.8h168.1c-2.4-4.9-4.5-9.9-6.3-14.8H204.9z"/>
<path class="st10" d="M216.8,435.7c0.9,0.5,1.9,1,2.8,1.5c0,0,9.4,4.5,22.8,9.9h90c0.3-3.2,0.5-7,0.5-11.4H216.8z"/>
<path class="st11" d="M203.4,331.8c-1.6,4.2-3.3,8.6-5.3,13.4h199.3c-2.8-4.1-5.8-8.6-8.8-13.4H203.4z"/>
<path class="st2" d="M423.3,64h9.6c-1.6-12.1-5.3-21.3-9.5-20.7C423.4,43.2,424,51.7,423.3,64z"/>
<path class="st2" d="M189.9,64c1.8-8.4,5.1-15.7,10.7-20.8c0,0-11.3,0.5-18.1,20.8H189.9z"/>
<path class="st10" d="M253.3,473.3c22.8,10.1,47.1,16.8,58.3,6.8c0,0,0.8-2,1.7-6.8H253.3z"/>
<path class="st2" d="M378.2,200.8c-15,7.7-28,13-36.7,12.5c-6.5-0.4-6.9-5.6-3.9-12.5h-23.7c-1.3,5.2-3.8,8.9-8.3,9.1
	c0,0-22-3.1-31.4-0.3c0,0-0.6-3.8-3-8.7h-37c0.9,0.5,1.8,0.9,2.7,1.4c0,0,8.6,15.8-23.7-1.4h-34.7c8.4,4.7,14.8,9.3,19.7,13.5h213
	v-2.1h37c2.3-3.6,4.4-7.4,6.4-11.4H378.2z"/>
<path class="st12" d="M210.3,286.7c-0.1,1.8-0.3,3.9-0.6,6.1h156.5c-0.7-2-1.2-4.1-1.7-6.1H210.3z"/>
<path class="st2" d="M364.7,267.1H208.8c0.5,0.8,1,1.9,1.6,3.4c0.8,2.1,2.1,5.7,2.1,12.5h153.2c-0.9-4.4-1.3-8.8-1.2-12.9
	C364.5,270.2,364.6,269,364.7,267.1z"/>
<path class="st13" d="M415.3,249.1h-48c0.3,0.7,0.5,1.3,0.7,1.9c0.9,3.8,3.4,9.5,8.6,12.5h17.3c1.8-0.7,3.8-1.6,5.8-2.7
	C399.7,260.7,406.3,256.6,415.3,249.1z"/>
<path class="st6" d="M176,396.7c-0.1,4.9,0.5,10.3,2.6,15.9h128.2c-5-3.6-12.6-9.4-19.6-15.9H176z"/>
<path class="st2" d="M147.5,186.4c1.4,0.5,2.8,1.1,4.1,1.6h42.3c-3.4-2.8-6.5-5.5-9.4-8.2H128c0.1,2.5,0.4,5.3,0.7,8.2h19.1
	C147.6,187,147.5,186.4,147.5,186.4z"/>
<path class="st2" d="M129.3,191.7c0.3,1.8,0.6,3.6,1,5.4h20.6c-0.8-2-1.5-3.9-2-5.4H129.3z"/>
<path class="st13" d="M362.1,249.1H163.5c8.9,6.2,19.9,11.2,33.6,14.4h167.6C364.5,259.7,363.9,254.6,362.1,249.1z"/>
<path class="st2" d="M141.8,87.7c-2-4-3.9-7.9-5.5-11.7h-5.7c0.5,3.5,1.3,7.4,2.5,11.7H141.8z"/>
<path class="st2" d="M142.4,227.2h30c-3.5-2.9-6.5-6.1-9.1-9.2h-26C138.7,221.1,140.4,224.2,142.4,227.2z"/>
<path class="st2" d="M397.3,153.9c6.8-3.3,14.1-7.1,21.2-11h-38.2c-1.9,0.5-3.7,0.8-5.4,0.7c0,0,0-0.2,0-0.7h-13.2
	c-1.3,5-2.8,8.9-4.8,11H397.3z"/>
<path class="st2" d="M336.1,171h25.7c2.6-2,5.1-3.6,7.3-4.4c3.8-1.4,11.4-4.7,20.7-9.1h-36.5C346.6,163.3,343.2,163.2,336.1,171z"/>
<path class="st2" d="M191.2,173.2h33.6c-8.6-4.9-16.7-10.8-22.7-15.7h-29.7C176.6,161.4,183,166.9,191.2,173.2z"/>
<path class="st2" d="M131.1,200.8c1.1,4.4,2.6,9,4.5,13.5h24.8c-3.4-4.7-6-9.4-7.9-13.5H131.1z"/>
<path class="st2" d="M198.6,191.7h-38.4c4.1,1.8,7.9,3.6,11.4,5.4h35.1C203.8,195.4,201.1,193.5,198.6,191.7z"/>
<path class="st2" d="M422.6,72.3h11c-0.1-1.6-0.2-3.2-0.3-4.7h-10.3C422.9,69.1,422.8,70.7,422.6,72.3z"/>
<path class="st2" d="M180.3,72.3h8.4c0.1-1.6,0.3-3.2,0.6-4.7h-7.8C181,69.1,180.7,70.7,180.3,72.3z"/>
<path class="st2" d="M458.9,113.6h-15c-3.6,2.6-7.9,5.1-13.2,7.3c0,0-6.7,2.7-4.7-7.3h-13.4c-1.4,3.1-2.9,6.2-4.6,9.2h42
	C454,119.5,457.1,116.4,458.9,113.6z"/>
<path class="st2" d="M265,191.7h-46.9c3,1.8,6.1,3.6,9.3,5.4h41.8C268,195.3,266.6,193.5,265,191.7z"/>
<path class="st2" d="M342.7,191.7H315c-0.1,1.9-0.2,3.7-0.4,5.4h24.8C340.3,195.4,341.4,193.6,342.7,191.7z"/>
<path class="st14" d="M414.4,190.3c-35.6,17.8-72.9,42.9-91.3,41.8c-18.5-1,12.5-41.1,27.5-46.7c15-5.6,89.2-40.1,91.7-57.2
	c0,0,5.6-14.6,0.3-29.3c0,0,4.2,26.1-30.3,40.8c0,0-10.5,4.2-1.4-17.4c9.1-21.6,2.8-61.4-5.9-60.3c0,0,4.1,55.8-20.9,87.8
	c0,0-16.4,12.9-27.5,12.5c0,0,2.8-59.6-8.4-69c0,0,1.4,68-9.8,79.5c-11.2,11.5-13.6,6.6-26.8,24.4c0,0-4.9,7.7-6.6-11.2
	c0,0-3.5-6.6-10.8-3.1c0,0,9.1,45-7,45.7c0,0-22-3.1-31.4-0.3c0,0-3.8-23.4-28.2-27.9c-24.4-4.5-54.4-33.1-54.4-33.1
	s69.4-15,81.6-44.3c0,0-23,23.7-77.4,27.2c0,0-19.9-66.3,4.9-88.2c0,0-30.7,1.4-21.3,90c0,0-6.6,7.3-17.1-9.8
	c-10.5-17.1-34.2-55.8-31-69c0,0-12.5,32.4,35.6,98c0,0,29.5,29.6,70.1,49.9c0,0,8.7,16-24.4-1.7c-33.1-17.8-39.6-41-63.8-42.9
	c-17.8-1.4-20.2,4.9-20.2,4.9S97.1,269.4,187.8,284c0,0,1.7-1,4.2,5.2c2.4,6.3,9.4,26.8-28.9,105.6c0,0-20.6,34.9,18.1,61.7
	c0,0,85.1,56.5,109.5,34.9c0,0,5.6-13.2,3.5-56.1c0,0-43.2-28.6-43.6-46.7c-0.3-18.1,10.6,0.2,14.3,5.6c6.6,9.7,21.7,28,93.4,36.6
	c0,0,11.5-0.3,21.3-14.3c9.8-13.9,19.5-24.8,9.8-37c-9.8-12.2-44.3-57.9-43.2-90.6c0,0,2.1-15.3-6.3-30c-8.4-14.6,8,3.5,9.8,10.8
	c1.7,7.3,9.4,22,31.7,9.8c0,0,56.5-35.2,63.8-88.5C445,190.9,449.9,172.5,414.4,190.3z M195.3,262.7c-56.1-5.6-66.2-57.5-66.2-57.5
	C204.7,234.5,195.3,262.7,195.3,262.7z"/>
<g>
	<path class="st15" d="M232.9,318.3V360h-10.8v-58.5h14c6.2,0,11,2.3,14.5,6.8c4.1,5.4,6.2,12.7,6.2,22c0,8.9-1.8,16.1-5.3,21.7
		c-3.5,5.6-8.1,8.4-13.7,8.4c-0.7,0-1.7-0.1-3.2-0.2V343h1.7c6.3,0,9.4-4.2,9.4-12.7c0-8-3.1-11.9-9.3-11.9H232.9z"/>
	<path class="st15" d="M287.2,341.2h-15.1c-0.2-1.2-0.3-2.4-0.3-3.4c0-1.4,0.2-2.8,0.5-4.2h5c-0.4-3.2-1.5-4.8-3.3-4.8
		c-1.2,0-2.2,0.8-3,2.5c-0.8,1.7-1.2,3.9-1.2,6.5c0,2.8,0.4,5,1.1,6.7c0.8,1.7,1.7,2.6,3,2.6c1,0,1.9-0.8,2.9-2.4l5.7,11
		c-2.6,3.3-5.6,5-8.8,5c-3.9,0-7.2-2.1-9.9-6.4c-2.7-4.3-4-9.5-4-15.8c0-6.3,1.4-11.5,4-15.8c2.7-4.3,6-6.5,9.9-6.5
		c3.8,0,7.1,2.1,9.7,6.3c2.6,4.2,3.9,9.4,3.9,15.6C287.3,338.8,287.3,339.8,287.2,341.2z"/>
	<path class="st15" d="M317.4,341.2h-15.1c-0.2-1.2-0.3-2.4-0.3-3.4c0-1.4,0.2-2.8,0.5-4.2h5c-0.4-3.2-1.5-4.8-3.3-4.8
		c-1.2,0-2.2,0.8-3,2.5c-0.8,1.7-1.2,3.9-1.2,6.5c0,2.8,0.4,5,1.1,6.7c0.8,1.7,1.7,2.6,3,2.6c1,0,1.9-0.8,2.9-2.4l5.7,11
		c-2.6,3.3-5.6,5-8.8,5c-3.9,0-7.2-2.1-9.9-6.4c-2.7-4.3-4-9.5-4-15.8c0-6.3,1.4-11.5,4-15.8c2.7-4.3,6-6.5,9.9-6.5
		c3.8,0,7.1,2.1,9.7,6.3c2.6,4.2,3.9,9.4,3.9,15.6C317.5,338.8,317.4,339.8,317.4,341.2z"/>
	<path class="st15" d="M336,316.8V334c-0.7-0.6-1.3-0.9-1.9-0.9c-1.8,0-2.7,2.2-2.7,6.7V360h-9.9v-23.3c0-6.2,1-11.1,3.1-14.8
		c2.1-3.7,4.9-5.5,8.4-5.5C333.8,316.4,334.8,316.5,336,316.8z"/>
	<path class="st15" d="M348.9,301.5V360h-9.9v-58.5H348.9z"/>
	<path class="st15" d="M380.7,341.2h-15.1c-0.2-1.2-0.3-2.4-0.3-3.4c0-1.4,0.2-2.8,0.5-4.2h5c-0.4-3.2-1.5-4.8-3.3-4.8
		c-1.2,0-2.2,0.8-3,2.5c-0.8,1.7-1.2,3.9-1.2,6.5c0,2.8,0.4,5,1.1,6.7c0.8,1.7,1.7,2.6,3,2.6c1,0,1.9-0.8,2.9-2.4l5.7,11
		c-2.6,3.3-5.6,5-8.8,5c-3.9,0-7.2-2.1-9.9-6.4c-2.7-4.3-4-9.5-4-15.8c0-6.3,1.4-11.5,4-15.8c2.7-4.3,6-6.5,9.9-6.5
		c3.8,0,7.1,2.1,9.7,6.3c2.6,4.2,3.9,9.4,3.9,15.6C380.8,338.8,380.8,339.8,380.7,341.2z"/>
	<path class="st15" d="M408.4,360h-9.9v-24.1c0-2.5-0.6-3.7-1.9-3.7c-1.2,0-1.9,1.2-1.9,3.7V360h-9.9v-23.8c0-5.6,1.1-10.3,3.4-14.1
		s5.1-5.7,8.4-5.7c3.8,0,6.8,2.2,9.1,6.6c1.8,3.5,2.7,8.3,2.7,14.4V360z"/>
	<path class="st15" d="M428.2,337.2c-2.4-0.8-4.1-1.6-5.2-2.5c-1.1-0.9-1.6-2-1.6-3.3c0-0.9,0.3-1.9,0.8-2.8c0.6-1,1.4-1.4,2.5-1.4
		l10.2-0.1v-9h-10.3c-3.6,0-6.5,1.2-8.6,3.5c-2.1,2.4-3.2,5.4-3.2,9.1c0,3.2,0.8,5.9,2.5,8.1c1.7,2.2,4,3.8,7.1,4.9
		c2.1,0.7,3.6,1.4,4.5,2.2c0.9,0.8,1,1.7,1,2.7c0,0.9,0,1.7-0.6,2.3c-0.6,0.6-1.5,0.9-2.6,0.9l-11.5,0v8.3h11.6
		c3.7,0,6.7-0.4,8.8-2.7c2.1-2.3,2.7-5.3,2.7-9c0-2.5-0.3-4.8-1.8-6.8C433,339.5,430.9,338.1,428.2,337.2z"/>
</g>
</svg>
